<svg xmlns="http://www.w3.org/2000/svg" viewBox="0 0 813.56 224.13"><defs><style>.cls-1{fill:#e30613;}.cls-2{fill:#3c3c3b;}.cls-3{fill:#fff;}.cls-4{fill:#f5f5f6;}.cls-5{fill:#1d71b8;}</style></defs><g id="Capa_2" data-name="Capa 2"><g id="Capa_1-2" data-name="Capa 1"><path class="cls-1" d="M0,37.8H48.28V181H0Z"/><path class="cls-1" d="M102.7,75.24H60.76V37.8H192.92V75.24H151V181H102.7Z"/><path class="cls-2" d="M332.35,87.72c0,31.1-22.5,49.92-59.74,49.92H237.22V181H216.76V37.8h55.85C309.85,37.8,332.35,56.62,332.35,87.72Zm-20.46,0c0-20.46-13.71-32.12-39.89-32.12H237.22v64.24H272C298.18,119.84,311.89,108.18,311.89,87.72Z"/><path class="cls-2" d="M632.05,181l-30.9-44c-2.86.21-5.93.41-9,.41H556.76V181H536.3V37.8h55.85c37.23,0,59.74,18.82,59.74,49.92,0,22.09-11.46,38.05-31.51,45.21l34,48.08Zm-.62-93.29c0-20.46-13.71-32.12-39.89-32.12H556.76V120h34.78C617.72,120,631.43,108.18,631.43,87.72Z"/><path class="cls-1" d="M444.89,152.07l-1.11,2.78-7.45,18.8v0l-7.42,18.76v0L404.5,223.13a1.57,1.57,0,0,1-2.46.65l-9.54-7.91,29-42.2-4.81-12.15v0L414,154.85l-34.38,55.92L367.28,210a1.57,1.57,0,0,1-1.36-2.16l40.36-71.06a1.56,1.56,0,0,1,2.05-.87l11.4,4.49v0l9.16,3.62h0l3.7,1.46,8.87,3.52,2.53,1A1.59,1.59,0,0,1,444.89,152.07Z"/><path class="cls-3" d="M421.47,173.67l-29,42.2-5.21-4.3a1.44,1.44,0,0,0-.9-.38l-6.75-.42L414,154.85l2.64,6.65v0Z"/><path class="cls-1" d="M415.83,152.07l1.1,2.78,7.45,18.8v0l7.42,18.76v0l24.41,30.68a1.58,1.58,0,0,0,2.47.65l9.53-7.91-29-42.2,4.81-12.15v0l2.63-6.65,34.39,55.92,12.36-.75a1.58,1.58,0,0,0,1.36-2.16L454.43,136.8a1.56,1.56,0,0,0-2.05-.87L441,140.42v0l-9.16,3.62h0l-3.7,1.46L419.23,149l-2.53,1A1.57,1.57,0,0,0,415.83,152.07Z"/><path class="cls-3" d="M439.25,173.67l29,42.2,5.21-4.3a1.46,1.46,0,0,1,.9-.38l6.76-.42-34.39-55.92-2.63,6.65v0Z"/><polygon class="cls-4" points="432.61 145.52 428.91 154.87 421.46 173.67 416.65 161.52 416.65 161.5 414.02 154.85 416.3 149.06 416.32 149.06 419.73 140.44 419.73 140.42 428.89 144.06 428.91 144.06 432.61 145.52"/><polygon class="cls-4" points="443.78 154.85 436.33 173.65 433.13 165.56 428.91 154.87 426.8 149.56 425.21 145.52 428.89 144.06 428.91 144.06 438.07 140.44 440.04 145.42 441.48 149.04 443.78 154.85"/><polygon class="cls-4" points="438.07 140.42 438.07 140.44 428.91 144.06 438.07 140.42"/><path class="cls-1" d="M428.9,181.76a29,29,0,0,1-17.83-6.13,28.35,28.35,0,0,1-4,.28,29.08,29.08,0,0,1-26.88-18.11,28.94,28.94,0,0,1-17.84-30.89,28.94,28.94,0,0,1,0-35.67,28.94,28.94,0,0,1,17.84-30.89,29.08,29.08,0,0,1,26.88-18.11,28.35,28.35,0,0,1,4,.28,29,29,0,0,1,35.67,0,28.35,28.35,0,0,1,4-.28,29.1,29.1,0,0,1,26.88,18.11,28.93,28.93,0,0,1,17.83,30.89,28.94,28.94,0,0,1,0,35.67,28.93,28.93,0,0,1-17.83,30.89,29.1,29.1,0,0,1-26.88,18.11,28.35,28.35,0,0,1-4-.28A29.07,29.07,0,0,1,428.9,181.76Z"/><path class="cls-3" d="M428.9,166.08a18.64,18.64,0,0,1-12-4.39,4.82,4.82,0,0,0-3.91-1.05,18.33,18.33,0,0,1-3.3.3,18.64,18.64,0,0,1-17.49-12.3,4.71,4.71,0,0,0-2.86-2.86,18.55,18.55,0,0,1-12-20.79,4.73,4.73,0,0,0-1-3.91,18.53,18.53,0,0,1,0-24,4.76,4.76,0,0,0,1-3.92,18.53,18.53,0,0,1,12-20.78,4.75,4.75,0,0,0,2.86-2.87,18.64,18.64,0,0,1,17.49-12.29,19.27,19.27,0,0,1,3.3.29,4.68,4.68,0,0,0,3.91-1,18.6,18.6,0,0,1,24,0,4.7,4.7,0,0,0,3.92,1,19.07,19.07,0,0,1,3.29-.29A18.64,18.64,0,0,1,465.6,69.51a4.79,4.79,0,0,0,2.87,2.87,18.54,18.54,0,0,1,12,20.78,4.76,4.76,0,0,0,1,3.92,18.56,18.56,0,0,1,0,24,4.73,4.73,0,0,0-1,3.91,18.56,18.56,0,0,1-12,20.79,4.75,4.75,0,0,0-2.87,2.86,18.63,18.63,0,0,1-17.49,12.3,18.14,18.14,0,0,1-3.29-.3,4.85,4.85,0,0,0-3.92,1.05A18.62,18.62,0,0,1,428.9,166.08Z"/><path class="cls-5" d="M435,70.58h0a9.49,9.49,0,0,0,7.81,2.09h0a9.5,9.5,0,0,1,10.62,6.13h0a9.5,9.5,0,0,0,5.72,5.72h0a9.5,9.5,0,0,1,6.13,10.62h0A9.49,9.49,0,0,0,467.4,103h0a9.5,9.5,0,0,1,0,12.26h0a9.48,9.48,0,0,0-2.09,7.81h0a9.49,9.49,0,0,1-6.13,10.61h0a9.5,9.5,0,0,0-5.72,5.72h0a9.5,9.5,0,0,1-10.62,6.13h0a9.52,9.52,0,0,0-7.81,2.09h0a9.5,9.5,0,0,1-12.26,0h0a9.51,9.51,0,0,0-7.81-2.09h0a9.49,9.49,0,0,1-10.61-6.13h0a9.52,9.52,0,0,0-5.72-5.72h0A9.49,9.49,0,0,1,392.5,123h0a9.51,9.51,0,0,0-2.09-7.81h0a9.5,9.5,0,0,1,0-12.26h0a9.52,9.52,0,0,0,2.09-7.81h0a9.5,9.5,0,0,1,6.13-10.62h0a9.52,9.52,0,0,0,5.72-5.72h0A9.49,9.49,0,0,1,415,72.67h0a9.48,9.48,0,0,0,7.81-2.09h0A9.5,9.5,0,0,1,435,70.58Z"/><path class="cls-2" d="M776.27,145.9H700l-15.78,35.86H663.15l65-143.44H748.4l65.16,143.44H792.05ZM715,25H703.93c.41-15.16,8.2-25,20.08-25,13.12,0,19.67,13.93,27.26,13.93,5.94,0,10-4.71,10.45-12.29h11.06C772.37,16.19,764.59,26,752.7,26,739.59,26,733,12.3,725.45,12.3,719.5,12.3,715.41,17,715,25Zm54.09,104.51L738.15,59.22l-30.94,70.29Z"/></g></g></svg>