<svg xmlns="http://www.w3.org/2000/svg" viewBox="0 0 894.6 301.89"><defs><style>.cls-1{fill:#3c3c3b;}.cls-2{fill:#e30613;}.cls-3{fill:#f6f6f6;}.cls-4{fill:#fff;}.cls-5{fill:#f5f5f6;}.cls-6{fill:#1d71b8;}</style></defs><g id="Capa_2" data-name="Capa 2"><g id="Capa_1-2" data-name="Capa 1"><rect class="cls-1" width="894.6" height="301.89"/><path class="cls-2" d="M40.52,77.93H88.8V221.14H40.52Z"/><path class="cls-2" d="M143.22,115.37H101.28V77.93H233.44v37.44H191.5V221.14H143.22Z"/><path class="cls-3" d="M372.87,127.85c0,31.1-22.5,49.92-59.74,49.92H277.74v43.37H257.28V77.93h55.85C350.37,77.93,372.87,96.76,372.87,127.85Zm-20.46,0c0-20.46-13.7-32.12-39.89-32.12H277.74V160h34.78C338.71,160,352.41,148.31,352.41,127.85Z"/><path class="cls-3" d="M672.57,221.14l-30.9-44c-2.86.2-5.93.41-9,.41H597.28v43.57H576.82V77.93h55.85c37.24,0,59.74,18.83,59.74,49.92,0,22.1-11.46,38.06-31.5,45.22l34,48.07ZM672,127.85c0-20.46-13.7-32.12-39.89-32.12H597.28v64.45h34.78C658.25,160.18,672,148.31,672,127.85Z"/><path class="cls-2" d="M485.41,192.2,484.3,195l-7.44,18.81v0l-7.43,18.76v0L445,263.26a1.58,1.58,0,0,1-2.47.65L433,256l29-42.2-4.81-12.15v0L454.54,195,420.16,250.9l-12.36-.75a1.57,1.57,0,0,1-1.36-2.15l40.36-71.06a1.56,1.56,0,0,1,2.05-.88l11.4,4.49v0l9.16,3.62h0l3.7,1.47,8.87,3.51,2.53,1A1.58,1.58,0,0,1,485.41,192.2Z"/><path class="cls-4" d="M462,213.81,433,256l-5.21-4.31a1.43,1.43,0,0,0-.89-.38l-6.76-.42L454.54,195l2.64,6.65v0Z"/><path class="cls-2" d="M456.35,192.2l1.11,2.78,7.44,18.81v0l7.43,18.76v0l24.4,30.67a1.57,1.57,0,0,0,2.47.65l9.54-7.9-29-42.2,4.81-12.15v0l2.64-6.65L521.6,250.9l12.36-.75a1.58,1.58,0,0,0,1.36-2.15L495,176.94a1.55,1.55,0,0,0-2.05-.88l-11.39,4.49v0l-9.16,3.62h0l-3.71,1.47-8.86,3.51-2.53,1A1.57,1.57,0,0,0,456.35,192.2Z"/><path class="cls-4" d="M479.77,213.81l29,42.2,5.2-4.31a1.46,1.46,0,0,1,.9-.38l6.76-.42L487.22,195l-2.64,6.65v0Z"/><polygon class="cls-5" points="473.13 185.66 469.43 195 461.99 213.81 457.18 201.66 457.18 201.63 454.54 194.98 456.82 189.19 456.84 189.19 460.25 180.57 460.25 180.55 469.41 184.19 469.43 184.19 473.13 185.66"/><polygon class="cls-5" points="484.3 194.98 476.86 213.78 473.66 205.69 469.43 195 467.32 189.69 465.73 185.66 469.41 184.19 469.43 184.19 478.59 180.57 480.56 185.55 482 189.17 484.3 194.98"/><polygon class="cls-5" points="478.59 180.55 478.59 180.57 469.43 184.19 478.59 180.55"/><path class="cls-2" d="M469.42,221.89a29,29,0,0,1-17.83-6.12,29.91,29.91,0,0,1-4,.28,29.1,29.1,0,0,1-26.88-18.12A28.93,28.93,0,0,1,402.87,167a28.91,28.91,0,0,1,0-35.67,28.94,28.94,0,0,1,17.83-30.89,29.08,29.08,0,0,1,26.88-18.11,29.91,29.91,0,0,1,4,.28,29,29,0,0,1,35.67,0,29.91,29.91,0,0,1,4-.28,29.1,29.1,0,0,1,26.88,18.11A28.94,28.94,0,0,1,536,131.37,28.94,28.94,0,0,1,536,167a28.93,28.93,0,0,1-17.83,30.89,29.11,29.11,0,0,1-26.88,18.12,29.91,29.91,0,0,1-4-.28A29,29,0,0,1,469.42,221.89Z"/><path class="cls-4" d="M469.42,206.21a18.66,18.66,0,0,1-12-4.39,4.7,4.7,0,0,0-3.91-1,19.27,19.27,0,0,1-3.3.29,18.64,18.64,0,0,1-17.49-12.3,4.74,4.74,0,0,0-2.86-2.86,18.56,18.56,0,0,1-12-20.79,4.74,4.74,0,0,0-1.05-3.91,18.56,18.56,0,0,1,0-24,4.76,4.76,0,0,0,1.05-3.92,18.55,18.55,0,0,1,12-20.78,4.73,4.73,0,0,0,2.86-2.87,18.64,18.64,0,0,1,17.49-12.29,19.27,19.27,0,0,1,3.3.29,4.78,4.78,0,0,0,.84.08,4.73,4.73,0,0,0,3.07-1.13,18.61,18.61,0,0,1,24,0,4.71,4.71,0,0,0,3.07,1.13,4.78,4.78,0,0,0,.84-.08,19.16,19.16,0,0,1,3.29-.29,18.65,18.65,0,0,1,17.5,12.29,4.73,4.73,0,0,0,2.86,2.87,18.55,18.55,0,0,1,12,20.78,4.76,4.76,0,0,0,1,3.92,18.56,18.56,0,0,1,0,24,4.74,4.74,0,0,0-1,3.91,18.56,18.56,0,0,1-12,20.79,4.74,4.74,0,0,0-2.86,2.86,18.64,18.64,0,0,1-17.49,12.3,19.19,19.19,0,0,1-3.3-.29,4.7,4.7,0,0,0-3.91,1A18.66,18.66,0,0,1,469.42,206.21Z"/><path class="cls-6" d="M475.55,110.71h0a9.5,9.5,0,0,0,7.81,2.1h0A9.5,9.5,0,0,1,494,118.94h0a9.51,9.51,0,0,0,5.72,5.71h0a9.5,9.5,0,0,1,6.13,10.62h0a9.49,9.49,0,0,0,2.09,7.81h0a9.5,9.5,0,0,1,0,12.26h0a9.48,9.48,0,0,0-2.09,7.81h0a9.5,9.5,0,0,1-6.13,10.62h0a9.48,9.48,0,0,0-5.72,5.71h0a9.5,9.5,0,0,1-10.62,6.13h0a9.5,9.5,0,0,0-7.81,2.1h0a9.5,9.5,0,0,1-12.26,0h0a9.49,9.49,0,0,0-7.81-2.1h0a9.49,9.49,0,0,1-10.61-6.13h0a9.48,9.48,0,0,0-5.72-5.71h0A9.5,9.5,0,0,1,433,163.15h0a9.51,9.51,0,0,0-2.09-7.81h0a9.5,9.5,0,0,1,0-12.26h0a9.52,9.52,0,0,0,2.09-7.81h0a9.5,9.5,0,0,1,6.13-10.62h0a9.51,9.51,0,0,0,5.72-5.71h0a9.49,9.49,0,0,1,10.61-6.13h0a9.49,9.49,0,0,0,7.81-2.1h0A9.5,9.5,0,0,1,475.55,110.71Z"/><path class="cls-3" d="M816.79,186H740.56l-15.78,35.86H703.67l65-143.44h20.29l65.16,143.44H832.57ZM755.52,65.13H744.45c.41-15.16,8.2-25,20.09-25,13.11,0,19.67,13.94,27.25,13.94,5.94,0,10-4.72,10.45-12.3H813.3c-.41,14.55-8.19,24.39-20.08,24.39-13.11,0-19.67-13.73-27.25-13.73C760,52.43,755.93,57.14,755.52,65.13Zm54.1,104.51-31-70.29-30.94,70.29Z"/></g></g></svg>